<mxfile host="app.diagrams.net" modified="2024-03-08T02:13:44.293Z" agent="Mozilla/5.0 (Windows NT 10.0; Win64; x64) AppleWebKit/537.36 (KHTML, like Gecko) Chrome/107.0.0.0 Safari/537.36 NetType/WIFI MicroMessenger/7.0.20.1781(0x6700143B) WindowsWechat(0x6309092b) XWEB/8555 Flue" version="24.0.1" etag="ZJngF577WpvUyV94EQ-Y" type="github">
  <diagram name="第 1 页" id="4eZwcoVRdHxJ3p6cPEqg">
    <mxGraphModel>
      <root>
        <mxCell id="0" />
        <mxCell id="1" parent="0" />
      </root>
    </mxGraphModel>
  </diagram>
</mxfile>
